<svg version="1.1" id="Layer_1" xmlns="http://www.w3.org/2000/svg" xmlns:xlink="http://www.w3.org/1999/xlink" x="0px" y="0px"
	 width="100%" viewBox="0 0 1024 1024" enable-background="new 0 0 1024 1024" xml:space="preserve">
<path fill="#000000" opacity="1.000000" stroke="none" 
	d="
M426.000000,558.245117 
	C402.908234,558.244568 380.316467,558.244568 356.886963,558.244568 
	C358.588593,552.686462 360.688019,548.385437 363.423126,544.499878 
	C365.050690,542.187622 368.060028,543.064453 370.477325,543.061279 
	C407.303619,543.012939 444.130066,543.033264 480.956451,543.035339 
	C492.787445,543.036011 504.618500,543.043457 516.449402,543.011475 
	C517.938782,543.007446 519.511108,543.043640 520.898560,542.601562 
	C523.555420,541.754883 525.009583,539.783264 524.754517,536.906067 
	C524.516541,534.221130 522.859436,532.685791 520.254456,532.342224 
	C518.612915,532.125610 516.929199,532.193237 515.264404,532.194580 
	C465.440643,532.234436 415.616699,532.238831 365.793365,532.406494 
	C361.603821,532.420593 359.914673,531.363892 359.758087,526.902100 
	C359.136963,509.204346 349.890808,497.021942 333.949585,490.412140 
	C318.830383,484.143158 304.498169,487.068268 291.783081,497.212219 
	C288.805176,499.587952 287.468994,499.834412 284.817535,496.475342 
	C276.875488,486.413727 268.632904,476.549957 259.924744,467.148895 
	C255.514221,462.387482 253.693008,457.621429 253.882690,451.147095 
	C254.245255,438.770081 253.489426,440.787628 264.372009,440.673157 
	C276.701599,440.543457 289.035950,440.791870 301.363525,440.589600 
	C305.273926,440.525452 307.923218,441.857300 310.292542,444.868591 
	C318.223907,454.948944 326.320251,464.899811 334.384705,474.875000 
	C336.872589,477.952271 339.426178,480.984497 343.015320,483.617981 
	C352.215912,469.592957 367.926697,466.006470 381.121674,458.655304 
	C400.757996,447.715515 420.854889,437.603699 440.724792,427.080994 
	C445.231018,424.694580 449.843079,423.577087 455.035797,423.561584 
	C481.358521,423.483032 507.684387,424.120575 534.005981,423.228882 
	C542.068604,422.955750 542.255676,423.360107 542.268982,431.573486 
	C542.274597,435.072845 542.069275,438.585876 542.312378,442.068115 
	C542.624939,446.545319 542.240295,450.223602 536.160950,449.684204 
	C536.070129,454.541595 538.514709,458.217224 540.193298,462.095703 
	C540.997559,463.953918 542.986023,463.633789 544.628540,463.587036 
	C549.620117,463.444977 554.608948,463.195404 559.600952,463.076202 
	C563.137268,462.991730 565.752197,464.218933 566.482300,468.124451 
	C567.046326,471.141327 569.089233,472.091248 572.003845,471.764465 
	C575.273254,471.397919 574.676392,468.935364 574.789185,466.858276 
	C574.897461,464.864105 574.723511,462.832275 575.039978,460.876251 
	C575.784241,456.276001 579.772461,453.417419 584.477173,453.886658 
	C588.983765,454.336151 591.940491,457.609192 592.025513,462.242523 
	C592.200073,471.761475 592.200134,471.766266 601.824402,471.761169 
	C627.986206,471.747253 654.157227,472.148682 680.306824,471.574951 
	C700.012329,471.142609 719.029175,473.952606 737.913879,479.355957 
	C768.478088,488.101044 799.176636,496.382080 829.884277,504.613770 
	C834.781982,505.926666 836.770203,508.121185 836.371765,513.240784 
	C835.933167,518.874451 836.153564,524.565308 836.216003,530.229797 
	C836.251465,533.451050 835.232788,535.112427 831.619507,535.104919 
	C806.957825,535.053833 782.294983,535.056702 757.634399,535.262207 
	C752.498291,535.304993 752.695312,532.325928 752.669739,528.769226 
	C752.501526,505.345459 734.892029,487.569122 711.713806,487.322601 
	C689.257996,487.083832 670.797791,504.981934 670.326233,527.450073 
	C670.161865,535.281128 670.161804,535.286316 662.381714,535.293701 
	C637.219727,535.317627 612.057190,535.422913 586.896118,535.280029 
	C582.369812,535.254333 578.466614,536.227966 574.643982,538.593079 
	C565.723633,544.112305 556.598083,549.300659 547.695618,554.847656 
	C544.029358,557.132141 540.349854,558.259460 535.974731,558.247498 
	C499.483429,558.147583 462.991638,558.223083 426.000000,558.245117 
z"/>
<path fill="#000000" opacity="1.000000" stroke="none" 
	d="
M492.233002,197.308624 
	C500.070129,184.729721 512.667847,172.946564 521.087952,170.217773 
	C522.472656,170.829727 522.291931,172.122299 522.205078,173.221298 
	C520.584473,193.749878 528.579041,211.319214 539.246765,227.976395 
	C547.889709,241.472015 556.283020,255.044601 560.282104,271.202087 
	C562.721619,266.943817 562.597107,262.461212 563.478088,258.244690 
	C564.407288,253.797180 562.481018,249.361832 563.004700,244.822372 
	C576.650879,249.594788 590.882874,289.458221 588.209778,314.958038 
	C584.585693,349.530640 555.746277,380.179138 522.670227,385.290314 
	C480.699677,391.775909 449.488464,370.007111 435.066315,336.855652 
	C421.153961,304.875946 433.569916,264.709900 449.370605,252.437790 
	C452.080292,256.546692 451.779175,261.716339 454.235504,265.811615 
	C456.591400,269.739471 458.351959,274.094208 462.457275,277.172668 
	C465.099823,272.017395 464.961426,266.983124 464.169464,261.838135 
	C462.429199,250.533051 458.494354,239.559235 459.587524,227.821426 
	C460.324554,219.907532 462.114594,212.414352 466.143433,205.534790 
	C466.852020,204.324814 467.231140,202.637222 469.638641,202.621719 
	C468.978027,209.578125 468.903992,216.473633 471.645081,223.021240 
	C474.315216,229.399475 478.347992,234.692688 484.504456,238.822189 
	C482.619873,224.130020 483.855255,210.201157 492.233002,197.308624 
M535.931885,337.365601 
	C531.012695,344.054901 525.130371,349.558105 517.245789,352.622101 
	C507.227783,356.515167 494.838348,354.379272 488.309906,347.610748 
	C481.725250,340.783966 480.880524,330.493164 485.962463,319.620361 
	C488.951477,313.225464 493.361908,307.774078 497.464661,302.118317 
	C501.098236,297.109314 504.467560,291.974426 505.980621,285.855621 
	C507.504974,279.690887 506.322357,273.985718 503.172058,268.420502 
	C500.533478,275.248260 497.958862,281.871674 493.416290,287.527374 
	C488.934570,293.107239 484.545044,298.764313 480.235046,304.477966 
	C476.909241,308.886993 474.231750,313.716980 472.433044,318.935730 
	C469.346527,327.891052 468.892059,336.823517 473.302765,345.589539 
	C481.177948,361.240997 498.081299,369.019287 516.276794,365.311676 
	C535.436157,361.407654 553.812256,339.964722 554.565796,320.351624 
	C554.706177,316.696808 555.617065,312.777863 552.766602,308.310211 
	C547.452454,318.471313 542.757019,328.152832 535.931885,337.365601 
M522.534668,302.099182 
	C536.937866,294.476105 541.240540,273.794495 534.255920,264.484619 
	C531.517639,272.921234 525.825134,279.167023 520.364563,285.632538 
	C515.674561,291.185638 513.495239,297.829803 512.883179,305.241364 
	C516.558899,305.096222 519.247620,303.842865 522.534668,302.099182 
z"/>
<path fill="#000000" opacity="1.000000" stroke="none" 
	d="
M423.313934,806.527222 
	C426.644409,803.218384 431.205505,800.671875 432.403748,797.021423 
	C433.696014,793.084534 428.710510,789.782043 426.847443,785.987793 
	C411.418549,754.565125 412.677856,723.917908 431.566864,694.397339 
	C434.366119,690.022522 434.071625,687.597717 430.517426,684.532654 
	C427.751526,682.147339 425.078094,679.605164 422.679321,676.857056 
	C420.014709,673.804504 419.940094,670.437195 422.968842,667.488892 
	C425.957611,664.579529 429.160187,665.372192 431.932831,667.762085 
	C434.700165,670.147522 437.327576,672.749756 439.693939,675.531250 
	C442.324371,678.623169 444.432953,678.735474 447.405396,675.813354 
	C459.644684,663.781677 474.624664,656.887268 491.184631,653.118347 
	C492.154083,652.897705 493.154602,652.800537 494.145538,652.689087 
	C502.792542,651.716614 502.806793,651.721252 503.853363,642.956543 
	C504.334656,638.926147 506.175171,636.533447 510.609985,636.600464 
	C514.973938,636.666504 516.966125,638.971375 517.289673,643.048340 
	C517.421143,644.705750 517.380005,646.380127 517.353821,648.045837 
	C517.319580,650.221863 518.189148,651.397888 520.502747,651.663574 
	C541.737061,654.102173 560.120850,662.651428 575.556274,677.483582 
	C576.009644,677.919189 576.677246,678.131897 577.645691,678.672119 
	C581.141663,675.372314 584.627808,672.075378 588.121216,668.786255 
	C591.213867,665.874451 594.490112,664.337341 598.194946,667.754822 
	C601.058044,670.395874 600.838379,674.085938 597.301208,677.896423 
	C594.702087,680.696350 591.848206,683.291382 588.901245,685.727783 
	C586.133484,688.015930 585.575684,689.975037 587.833008,693.207092 
	C597.642273,707.251770 602.369263,723.161804 603.054382,740.089478 
	C603.768982,757.745422 599.804565,774.474304 590.601990,789.772217 
	C586.448242,796.677307 586.482666,796.672913 592.437073,802.459717 
	C594.107788,804.083252 595.713440,805.781799 597.253235,807.530212 
	C599.802979,810.425476 600.257996,813.487976 597.387451,816.421997 
	C594.514587,819.358337 591.373108,818.829468 588.404907,816.569031 
	C586.556580,815.161499 584.893494,813.506714 583.179321,811.928223 
	C581.598572,810.472656 580.060547,808.970703 578.184998,807.185852 
	C571.937866,811.357239 567.249390,817.098022 561.085693,821.071289 
	C549.393860,828.608276 536.867737,833.646301 523.078796,835.310974 
	C518.846680,835.821838 516.487549,837.280151 517.258667,841.882324 
	C517.285828,842.044373 517.263428,842.215027 517.261963,842.381653 
	C517.201782,849.411072 514.804321,852.975891 510.166443,852.932495 
	C505.803955,852.891663 503.808136,849.804382 503.906677,842.370728 
	C503.957001,838.573486 503.387604,836.135010 498.807037,835.716614 
	C477.516205,833.771729 459.693054,824.450195 444.571594,809.598938 
	C444.099182,809.135071 443.566162,808.726135 443.026550,808.340393 
	C442.765564,808.153809 442.423737,808.080383 441.487701,807.698059 
	C438.854401,810.211853 436.095520,813.027222 433.138123,815.615784 
	C430.363800,818.044189 427.218079,819.590088 423.626434,817.196899 
	C420.062012,814.821838 419.942627,811.641418 423.313934,806.527222 
M441.279755,706.773926 
	C433.342560,721.187195 430.195892,736.434753 432.115936,752.922607 
	C437.200958,796.588196 479.213806,829.328369 525.114563,819.956238 
	C568.106689,811.177979 594.550110,771.874512 586.534851,728.617676 
	C579.953674,693.100708 551.507263,670.003418 519.867737,666.630554 
	C486.010406,663.021362 459.626251,676.936035 441.279755,706.773926 
z"/>
<path fill="#000000" opacity="1.000000" stroke="none" 
	d="
M694.024902,595.733154 
	C700.512817,595.730225 706.508301,595.611938 712.497681,595.753540 
	C720.341064,595.939026 724.502869,600.083679 724.500671,607.921814 
	C724.489563,647.513000 724.419312,687.104370 724.288086,726.695374 
	C724.261414,734.750488 720.696228,738.201355 712.606445,738.306396 
	C704.783691,738.408020 696.958862,738.343994 689.134949,738.355103 
	C677.225586,738.372070 674.697449,735.917480 674.686951,724.140442 
	C674.660461,694.509399 674.663391,664.878296 674.657776,635.247253 
	C674.656067,626.258057 674.649658,617.268799 674.673340,608.279663 
	C674.696655,599.436340 678.190491,595.899536 687.037659,595.738586 
	C689.200989,595.699219 691.365723,595.733093 694.024902,595.733154 
z"/>
<path fill="#000000" opacity="1.000000" stroke="none" 
	d="
M681.000000,384.688080 
	C721.978516,384.684052 762.457031,384.679260 802.935547,384.675995 
	C804.934448,384.675842 806.934509,384.646942 808.931946,384.704926 
	C813.446594,384.835999 816.085144,387.361572 816.806946,391.618317 
	C817.400146,395.117035 813.648865,399.354950 809.675964,400.004486 
	C808.045654,400.270996 806.354919,400.224762 804.691711,400.225403 
	C751.053528,400.246948 697.415283,400.266052 643.777100,400.258972 
	C635.316223,400.257843 631.898682,396.992126 631.895630,388.488373 
	C631.877869,339.181427 631.948975,289.874481 631.992676,240.567535 
	C631.993286,239.901611 632.000122,239.233475 632.052246,238.570160 
	C632.578430,231.880203 635.204407,228.740250 640.256592,228.743073 
	C645.198914,228.745834 647.930847,232.148865 647.978577,238.897736 
	C648.088013,254.388855 648.068604,269.880981 648.073608,285.372711 
	C648.083618,316.356171 648.182800,347.340424 647.966614,378.322357 
	C647.930969,383.430847 649.492981,384.986115 654.518250,384.772675 
	C663.164429,384.405426 671.837952,384.681519 681.000000,384.688080 
z"/>
<path fill="#000000" opacity="1.000000" stroke="none" 
	d="
M392.007507,594.413330 
	C382.351715,594.588501 373.194977,594.805725 364.036957,594.897522 
	C361.891449,594.919006 359.624573,594.878540 357.618805,594.230835 
	C353.685242,592.960754 351.594727,589.883850 352.008301,585.804871 
	C352.439484,581.552979 354.833984,578.775208 359.505035,578.636108 
	C364.996887,578.472595 370.487427,578.108459 375.978699,578.104980 
	C427.624817,578.071899 479.271027,578.056702 530.917114,578.124207 
	C554.221191,578.154663 577.517822,578.679382 600.831665,578.258484 
	C616.134949,577.982178 631.461243,578.372925 646.777588,578.072876 
	C648.596130,578.037231 650.451355,578.179321 652.237427,578.515869 
	C656.887451,579.392029 659.514954,582.562988 659.267822,586.761475 
	C659.025879,590.871887 655.854309,593.954895 651.401611,594.282837 
	C649.577698,594.417236 647.738281,594.356201 645.905884,594.356628 
	C561.439270,594.376221 476.972687,594.392700 392.007507,594.413330 
z"/>
<path fill="#000000" opacity="1.000000" stroke="none" 
	d="
M217.013885,419.905823 
	C207.024506,419.814209 204.714615,417.570221 204.712311,408.104370 
	C204.703766,372.948242 204.746826,337.792084 204.736099,302.635956 
	C204.734833,298.501160 205.705948,294.946503 209.937500,293.318207 
	C213.110580,292.097229 215.847076,293.423309 218.178329,295.509308 
	C220.547226,297.628967 220.345612,300.572998 220.345169,303.423706 
	C220.340317,334.414459 220.345779,365.405182 220.356262,396.395935 
	C220.358734,403.707367 220.372177,403.726929 227.912231,403.728180 
	C280.563049,403.737061 333.213867,403.730011 385.864685,403.762756 
	C388.345490,403.764313 390.897919,403.785980 393.290710,404.341858 
	C397.305450,405.274597 399.038483,408.559021 398.839539,412.233826 
	C398.637695,415.961273 396.415863,418.911041 392.305939,419.280640 
	C387.670319,419.697510 383.000427,419.895172 378.344971,419.903168 
	C350.853363,419.950226 323.344543,420.507446 295.875244,419.718079 
	C274.049042,419.090851 252.245834,420.670349 230.437958,419.484314 
	C226.133575,419.250214 221.789703,419.742340 217.013885,419.905823 
z"/>
<path fill="#000000" opacity="1.000000" stroke="none" 
	d="
M606.205017,616.693970 
	C604.751465,621.511536 601.690796,623.365540 597.116150,623.363647 
	C537.162598,623.339478 477.209106,623.375427 417.255585,623.354309 
	C411.383850,623.352234 407.890350,620.300598 407.749847,615.422180 
	C407.606140,610.433105 410.746979,607.445496 416.770874,606.894287 
	C417.928772,606.788391 419.100159,606.807312 420.265320,606.806641 
	C478.386932,606.773010 536.508545,606.736694 594.630127,606.721313 
	C602.931396,606.719116 605.723633,609.066833 606.205017,616.693970 
z"/>
<path fill="#000000" opacity="1.000000" stroke="none" 
	d="
M338.355072,553.453796 
	C319.423340,567.444946 295.349365,559.214233 287.982758,538.939148 
	C282.589661,524.095642 289.074921,507.791260 303.218323,500.181335 
	C317.644073,492.419495 335.004639,496.484283 345.102112,509.987915 
	C354.359802,522.368469 352.885803,538.980713 341.506195,550.442505 
	C340.567627,551.387817 339.593750,552.298157 338.355072,553.453796 
M322.976685,542.605591 
	C324.310303,541.939819 325.732025,541.406189 326.962860,540.586121 
	C333.559937,536.190552 335.812103,527.531372 332.182007,520.799133 
	C328.460968,513.898254 320.249573,511.103149 312.845245,514.216980 
	C305.320221,517.381592 301.643219,525.175903 304.187256,532.569641 
	C306.887543,540.417603 314.287781,544.600525 322.976685,542.605591 
z"/>
<path fill="#000000" opacity="1.000000" stroke="none" 
	d="
M689.293762,551.724243 
	C679.842896,542.046936 676.889893,530.897949 680.994629,518.431091 
	C684.674194,507.255554 692.335388,499.706970 704.093323,497.088470 
	C719.224243,493.718781 734.294617,501.113403 740.739685,514.831177 
	C747.052368,528.267151 742.991577,544.350464 730.889893,553.842957 
	C719.493652,562.782104 702.803162,562.534729 691.087708,553.249634 
	C690.565979,552.836182 690.066345,552.394775 689.293762,551.724243 
M715.989990,542.650085 
	C722.042480,540.261658 725.833862,535.898254 726.611450,529.432617 
	C727.428955,522.634888 723.579529,516.585144 717.309509,513.971619 
	C711.714417,511.639435 703.918762,513.449280 699.947021,518.002563 
	C695.699219,522.872375 694.929138,529.779358 698.041199,535.094055 
	C701.819214,541.546021 708.081787,544.359436 715.989990,542.650085 
z"/>
<path fill="#000000" opacity="1.000000" stroke="none" 
	d="
M241.383087,660.259766 
	C269.966644,660.345764 298.105988,660.531677 326.245575,660.576111 
	C335.732117,660.591125 345.218933,660.228455 354.706299,660.083374 
	C356.531250,660.055420 358.380554,660.090637 360.182037,660.350464 
	C365.125336,661.063660 368.403534,664.638672 368.201477,668.912598 
	C367.994843,673.284546 364.513000,676.722961 359.706757,677.214417 
	C358.386108,677.349487 357.044708,677.303711 355.712830,677.304138 
	C316.740936,677.316711 277.769012,677.311829 238.797150,677.356628 
	C235.534042,677.360352 232.421341,677.207703 230.213593,674.377991 
	C228.152390,671.736206 227.087036,668.870239 228.582474,665.563049 
	C230.013870,662.397522 232.342514,660.594971 235.957184,660.617554 
	C237.617081,660.627930 239.278336,660.415710 241.383087,660.259766 
z"/>
<path fill="#000000" opacity="1.000000" stroke="none" 
	d="
M786.000000,413.689819 
	C792.659424,413.678070 798.820740,413.571503 804.977905,413.686035 
	C810.565735,413.789978 814.311340,417.286285 814.216187,422.014404 
	C814.117981,426.893433 810.545471,430.290253 804.874390,430.302124 
	C766.085266,430.383270 727.295898,430.395264 688.506775,430.350922 
	C683.123169,430.344757 679.653320,426.662445 679.751221,421.596741 
	C679.848694,416.548767 682.822327,413.704712 688.610168,413.695068 
	C720.906677,413.641266 753.203369,413.682526 786.000000,413.689819 
z"/>
<path fill="#000000" opacity="1.000000" stroke="none" 
	d="
M217.681396,502.053650 
	C226.997055,507.833252 231.867783,516.011658 230.767639,526.482788 
	C229.636078,537.252686 223.663620,544.960876 212.807587,548.148315 
	C202.800659,551.086487 193.975021,549.040894 186.704208,541.531982 
	C178.355072,532.909363 177.646286,519.267090 184.774231,509.318726 
	C192.070969,499.134766 205.138565,496.147400 217.681396,502.053650 
z"/>
<path fill="#000000" opacity="1.000000" stroke="none" 
	d="
M337.000000,690.763306 
	C344.986420,690.741577 352.473816,690.637695 359.959045,690.723755 
	C366.460663,690.798523 370.491089,694.217224 370.646271,699.509583 
	C370.795044,704.583313 366.516052,708.261047 360.070892,708.272583 
	C333.618622,708.320007 307.166199,708.309387 280.713898,708.264343 
	C274.506622,708.253784 270.765137,704.894592 270.735565,699.590210 
	C270.705902,694.266296 274.389618,690.777893 280.600830,690.752380 
	C299.233551,690.675842 317.866913,690.749023 337.000000,690.763306 
z"/>
<path fill="#000000" opacity="1.000000" stroke="none" 
	d="
M282.999207,647.287842 
	C260.512115,647.292603 238.524765,647.322510 216.537537,647.283020 
	C210.673447,647.272522 207.359039,644.748718 206.741928,640.130310 
	C205.983932,634.457458 208.424362,631.078308 214.179611,630.640564 
	C230.640854,629.388550 247.132507,630.067322 263.607117,630.337585 
	C272.432922,630.482300 281.249603,630.746338 290.067780,630.273010 
	C293.402740,630.094055 296.735321,629.894714 300.020233,630.626892 
	C304.844757,631.702209 307.535950,634.992188 307.274353,639.351746 
	C307.022766,643.543884 303.714264,646.892456 298.986359,647.142944 
	C293.835846,647.415955 288.662415,647.257446 282.999207,647.287842 
z"/>
<path fill="#000000" opacity="1.000000" stroke="none" 
	d="
M348.000427,721.775635 
	C357.156342,721.770813 365.814056,721.658569 374.467590,721.800903 
	C379.070221,721.876526 382.416779,724.096619 383.706909,728.739197 
	C384.742432,732.465637 382.908997,735.186157 380.270477,737.471924 
	C378.399109,739.093262 376.046722,739.276367 373.676514,739.276489 
	C352.701843,739.277405 331.727081,739.327637 310.752625,739.265564 
	C305.176483,739.249023 301.284973,735.561707 301.110229,730.541931 
	C300.937164,725.568481 304.633606,721.859558 310.546173,721.782837 
	C322.862244,721.622986 335.182159,721.759399 348.000427,721.775635 
z"/>
<path fill="#000000" opacity="1.000000" stroke="none" 
	d="
M385.013184,391.330566 
	C379.411591,391.479248 377.583557,388.765808 377.607056,383.854889 
	C377.710480,362.233673 377.634552,340.611694 377.693817,318.990204 
	C377.709442,313.294006 380.609161,310.293610 385.660370,310.382935 
	C390.711456,310.472260 393.292297,313.393311 393.305786,319.267334 
	C393.354706,340.556274 393.382812,361.845306 393.361847,383.134247 
	C393.355560,389.491364 392.006409,390.799591 385.013184,391.330566 
z"/>
<path fill="#000000" opacity="1.000000" stroke="none" 
	d="
M774.458191,618.962402 
	C767.234009,617.982300 763.764099,614.307556 763.970398,608.316223 
	C764.172729,602.443054 768.154297,598.956848 775.110596,598.890869 
	C786.239014,598.785339 797.369629,598.754639 808.497803,598.857544 
	C815.140503,598.918945 819.910095,603.178589 820.031006,608.780151 
	C820.152832,614.420959 815.594910,618.799438 808.791809,618.919922 
	C797.500061,619.119873 786.202209,618.976196 774.458191,618.962402 
z"/>
<path fill="#000000" opacity="1.000000" stroke="none" 
	d="
M704.203247,350.998291 
	C704.190979,356.162323 704.252625,360.828461 704.148132,365.490936 
	C704.048462,369.939941 701.694641,372.138672 697.197327,372.169464 
	C690.856262,372.212891 688.571167,371.025574 688.332031,366.036346 
	C687.909851,357.228546 687.968384,348.391113 688.042847,339.567902 
	C688.118652,330.579987 687.664856,321.580811 688.606628,312.604126 
	C689.137695,307.542633 691.701660,304.963135 696.513000,305.007568 
	C701.013489,305.049133 704.201416,308.164825 704.231995,313.013367 
	C704.310791,325.507965 704.224670,338.003601 704.203247,350.998291 
z"/>
<path fill="#000000" opacity="1.000000" stroke="none" 
	d="
M275.290527,384.567627 
	C273.791443,390.341614 271.187866,391.859894 265.212708,391.091248 
	C260.455872,390.479340 259.546936,387.409515 259.570892,383.253906 
	C259.671753,365.765930 259.544281,348.276520 259.673889,330.788940 
	C259.722290,324.255585 265.345154,320.723938 271.008820,323.397980 
	C274.493896,325.043396 275.379700,328.006134 275.362091,331.647369 
	C275.277496,349.135773 275.314789,366.624786 275.290527,384.567627 
z"/>
<path fill="#000000" opacity="1.000000" stroke="none" 
	d="
M741.109497,312.943176 
	C748.980469,310.748535 753.284607,313.788513 753.302734,321.277283 
	C753.336914,335.396973 753.302246,349.516968 753.236572,363.636597 
	C753.207397,369.899658 751.411621,371.976624 746.126221,372.190552 
	C739.695557,372.450836 737.400208,370.934723 737.326172,364.381073 
	C737.151917,348.945923 737.541382,333.503876 737.762268,318.065460 
	C737.792725,315.935669 739.047424,314.350311 741.109497,312.943176 
z"/>
<path fill="#000000" opacity="1.000000" stroke="none" 
	d="
M679.342896,359.921326 
	C679.348877,361.408142 679.370850,362.407379 679.356506,363.406097 
	C679.262573,369.931030 677.966003,371.332947 671.998779,371.380615 
	C665.549805,371.432129 663.816162,369.942291 663.780212,363.622894 
	C663.697632,349.137756 663.711670,334.651215 663.827332,320.166351 
	C663.859863,316.089844 664.346924,311.940887 669.416870,310.798920 
	C675.499695,309.428833 679.432678,312.618835 679.439331,318.973877 
	C679.453491,332.460358 679.379700,345.946930 679.342896,359.921326 
z"/>
<path fill="#000000" opacity="1.000000" stroke="none" 
	d="
M395.018799,225.625153 
	C401.742340,230.054031 405.167816,237.038498 403.829987,243.062286 
	C402.203644,250.385071 396.085327,256.035583 388.634399,257.096039 
	C382.444550,257.977020 375.718140,254.347290 372.488708,248.383438 
	C369.132355,242.185226 370.123108,234.111465 374.888885,228.824112 
	C379.563599,223.637817 386.806854,222.401672 395.018799,225.625153 
z"/>
<path fill="#000000" opacity="1.000000" stroke="none" 
	d="
M239.992279,617.249268 
	C231.667343,617.262085 223.840378,617.332825 216.014557,617.267578 
	C209.878510,617.216492 206.059265,613.747620 206.092316,608.470276 
	C206.126480,603.014648 209.698212,599.744019 215.998245,599.702087 
	C227.154602,599.627808 238.312485,599.620544 249.468536,599.720154 
	C255.882568,599.777405 260.335114,603.832642 260.143860,609.128052 
	C259.968964,613.970642 255.815903,617.152283 249.482803,617.243347 
	C246.486038,617.286438 243.488144,617.249329 239.992279,617.249268 
z"/>
<path fill="#000000" opacity="1.000000" stroke="none" 
	d="
M643.878357,812.191162 
	C633.993896,811.406738 627.848572,805.366333 627.402710,796.434265 
	C626.974426,787.855652 632.311951,781.012878 640.815308,779.239075 
	C648.886536,777.555420 656.921753,782.178894 659.577820,790.333618 
	C662.898132,800.527527 656.536560,810.950806 643.878357,812.191162 
z"/>
<path fill="#000000" opacity="1.000000" stroke="none" 
	d="
M287.691193,321.561401 
	C279.798248,315.443024 277.699219,306.477203 282.076935,298.780212 
	C285.923035,292.017914 294.477173,289.053619 302.027283,291.866699 
	C310.109161,294.877899 314.694916,304.209106 311.996063,312.151337 
	C309.035675,320.863190 299.212219,325.885529 290.747223,322.988647 
	C289.806732,322.666779 288.925934,322.170624 287.691193,321.561401 
z"/>
<path fill="#000000" opacity="1.000000" stroke="none" 
	d="
M368.401489,808.892700 
	C360.228119,801.743042 359.334869,790.792175 366.023041,783.550354 
	C372.015991,777.061096 383.370819,777.094421 389.721283,783.619690 
	C395.107483,789.154175 395.762054,797.829712 391.275269,804.216370 
	C386.136993,811.530151 377.640900,813.368774 368.401489,808.892700 
z"/>
<path fill="#000000" opacity="1.000000" stroke="none" 
	d="
M345.353790,346.330872 
	C345.356567,359.080933 345.381134,371.366943 345.327026,383.652618 
	C345.299408,389.926208 343.873383,391.286835 337.698914,391.286743 
	C331.581085,391.286652 329.783295,389.712769 329.751160,383.798492 
	C329.683502,371.346771 329.685425,358.893677 329.805542,346.442535 
	C329.855225,341.290070 332.587067,338.340118 337.069763,338.029236 
	C341.735260,337.705688 344.551727,340.373779 345.353790,346.330872 
z"/>
<path fill="#000000" opacity="1.000000" stroke="none" 
	d="
M712.612000,361.885925 
	C712.629211,350.255035 712.619690,339.106262 712.677673,327.957886 
	C712.706482,322.427246 715.315979,319.450378 720.092529,319.298309 
	C724.994141,319.142273 728.179871,322.343628 728.228455,327.909943 
	C728.333008,339.889648 728.315247,351.871124 728.254822,363.851379 
	C728.223511,370.056458 726.235413,372.188019 720.914795,372.114624 
	C714.285767,372.023193 712.805786,370.549896 712.632202,363.865692 
	C712.619263,363.366730 712.619202,362.867401 712.612000,361.885925 
z"/>
<path fill="#000000" opacity="1.000000" stroke="none" 
	d="
M777.451294,356.402802 
	C777.376953,360.024445 777.335999,363.180237 777.280823,366.335785 
	C777.199341,371.000580 774.170471,372.133514 770.255249,372.135620 
	C766.238098,372.137787 761.999084,371.807495 761.877625,366.588165 
	C761.611023,355.134277 761.602722,343.664215 761.913147,332.212280 
	C762.030762,327.870972 765.141541,325.345215 769.481934,325.005463 
	C773.587708,324.684113 777.298706,327.739441 777.655151,332.055389 
	C778.311523,340.003265 778.143616,347.980469 777.451294,356.402802 
z"/>
<path fill="#000000" opacity="1.000000" stroke="none" 
	d="
M235.752945,364.027161 
	C235.776199,360.541931 235.608505,357.534637 235.866348,354.564301 
	C236.257431,350.059174 239.463196,347.172791 243.741776,347.110626 
	C248.222336,347.045563 251.424896,349.497162 251.526184,354.331146 
	C251.748642,364.946136 251.655838,375.584686 251.174744,386.190155 
	C250.944107,391.274109 246.402344,390.950378 242.781174,391.004913 
	C238.785202,391.065125 235.894531,389.356934 235.801651,384.960480 
	C235.657806,378.150238 235.756622,371.334900 235.752945,364.027161 
z"/>
<path fill="#000000" opacity="1.000000" stroke="none" 
	d="
M282.853088,373.982666 
	C282.859131,368.487823 282.763092,363.486664 282.895325,358.491516 
	C283.046753,352.771118 286.328949,349.458984 291.463379,349.572540 
	C296.367279,349.681000 299.235046,352.894043 299.256134,358.566223 
	C299.287170,366.897186 299.249115,375.229279 299.137238,383.559509 
	C299.057556,389.494385 297.395874,391.174622 291.864594,391.288757 
	C285.392853,391.422302 283.358612,389.838989 282.948212,383.973145 
	C282.727661,380.821655 282.872070,377.644562 282.853088,373.982666 
z"/>
<path fill="#000000" opacity="1.000000" stroke="none" 
	d="
M369.332886,376.973480 
	C369.336243,379.128387 369.237793,380.796295 369.359283,382.447998 
	C370.038147,391.677521 365.883789,391.933014 358.012146,391.069183 
	C355.140106,390.753967 353.809448,388.406097 353.792236,385.679382 
	C353.732513,376.216949 353.631897,366.747345 353.941376,357.293365 
	C354.085449,352.891907 357.892242,349.817719 361.902893,349.974548 
	C366.592773,350.157898 369.282623,353.017822 369.327942,358.048340 
	C369.383270,364.191406 369.335663,370.335419 369.332886,376.973480 
z"/>
<path fill="#000000" opacity="1.000000" stroke="none" 
	d="
M281.335724,567.432190 
	C290.235718,568.018066 295.958618,573.041565 296.249329,580.141541 
	C296.521088,586.778137 291.707703,592.864441 285.166412,594.155396 
	C277.297333,595.708252 270.768616,591.159790 269.178162,583.016724 
	C267.720825,575.555420 272.430328,569.336792 281.335724,567.432190 
z"/>
<path fill="#000000" opacity="1.000000" stroke="none" 
	d="
M659.168701,674.739990 
	C666.382629,681.069031 664.514282,694.922302 653.107239,697.126709 
	C647.386475,698.232239 642.199158,696.183533 639.620056,691.903076 
	C636.725464,687.099060 636.895874,680.388306 640.014160,676.382935 
	C643.072144,672.454956 649.249390,670.619385 654.468079,672.267334 
	C656.015015,672.755859 657.406555,673.736572 659.168701,674.739990 
z"/>
<path fill="#000000" opacity="1.000000" stroke="none" 
	d="
M662.820557,642.839844 
	C663.942200,651.757812 661.098755,657.118042 654.566528,659.083740 
	C647.442444,661.227539 641.013367,658.407288 638.552673,652.058899 
	C635.915833,645.256104 638.666748,638.172119 645.055481,635.313904 
	C652.130737,632.148438 658.742126,634.828918 662.820557,642.839844 
z"/>
<path fill="#000000" opacity="1.000000" stroke="none" 
	d="
M658.562134,732.772217 
	C648.286438,738.272949 638.633118,733.957581 637.755188,723.846008 
	C637.222473,717.710205 640.047668,712.925293 645.467407,710.784363 
	C650.524170,708.786804 657.130127,710.295349 660.481506,714.212952 
	C664.100342,718.443237 664.418518,725.121033 661.163330,729.940613 
	C660.522949,730.888672 659.643433,731.675354 658.562134,732.772217 
z"/>
<path fill="#000000" opacity="1.000000" stroke="none" 
	d="
M317.557983,391.135742 
	C315.294556,391.204071 313.443756,391.389099 311.640594,391.174133 
	C308.647644,390.817322 306.714722,389.190186 306.697083,385.955475 
	C306.656281,378.463318 306.527924,370.967529 306.708618,363.479797 
	C306.813995,359.111786 309.751740,356.645355 314.223755,356.550201 
	C318.743958,356.454041 321.922516,358.719086 322.104431,363.073761 
	C322.416901,370.551910 322.256989,378.053680 322.148865,385.543427 
	C322.109802,388.246460 320.864685,390.348419 317.557983,391.135742 
z"/>
<path fill="#000000" opacity="1.000000" stroke="none" 
	d="
M368.046265,313.359406 
	C370.136414,321.431580 369.412994,329.256653 368.748810,336.991608 
	C368.421021,340.809113 364.976654,342.249969 361.333466,342.337097 
	C357.733490,342.423187 354.394836,341.377319 353.626373,337.447815 
	C352.180389,330.053833 352.003723,322.478546 353.742554,315.164886 
	C355.192810,309.065002 361.995239,308.232666 368.046265,313.359406 
z"/>
<path fill="#000000" opacity="1.000000" stroke="none" 
	d="
M326.126648,761.115845 
	C328.700378,767.908875 327.825500,772.643250 323.549500,776.435608 
	C319.969025,779.611084 314.606842,780.311157 310.502136,778.147278 
	C305.292603,775.401001 304.270325,770.771179 304.669525,765.426514 
	C305.041840,760.440796 308.024261,757.341309 312.386261,756.002747 
	C317.809845,754.338501 322.584778,755.882568 326.126648,761.115845 
z"/>
<path fill="#000000" opacity="1.000000" stroke="none" 
	d="
M806.226440,460.287476 
	C805.179810,455.024872 806.433167,450.827820 810.689514,448.162933 
	C814.504211,445.774567 818.647156,446.028992 822.525635,448.359863 
	C826.188599,450.561249 827.560059,453.990753 827.267822,458.119751 
	C826.930908,462.879791 823.064270,466.877197 817.970154,467.882690 
	C813.113525,468.841309 809.015137,466.302643 806.226440,460.287476 
z"/>
<path fill="#000000" opacity="1.000000" stroke="none" 
	d="
M765.858032,640.091431 
	C770.267456,635.452393 775.126526,634.494446 779.417236,637.115356 
	C783.675720,639.716675 785.531982,645.280518 783.808594,650.277344 
	C782.101135,655.228210 777.824158,657.872375 772.510925,657.261902 
	C767.138184,656.644653 763.038818,650.841125 764.087097,645.141846 
	C764.383545,643.530090 765.125244,642.000183 765.858032,640.091431 
z"/>
<path fill="#000000" opacity="1.000000" stroke="none" 
	d="
M734.964294,644.519714 
	C737.622314,637.336487 741.927246,634.524170 747.266602,636.128052 
	C752.809387,637.793030 755.854553,643.212524 754.538757,649.070068 
	C753.199585,655.031372 749.485779,657.792175 743.412964,657.340759 
	C738.778748,656.996277 735.362976,653.276550 734.826477,647.910522 
	C734.728210,646.927307 734.860779,645.920959 734.964294,644.519714 
z"/>
<path fill="#000000" opacity="1.000000" stroke="none" 
	d="
M741.016846,694.456543 
	C735.621399,690.888733 733.684143,686.411682 735.151428,681.204163 
	C736.330139,677.020996 738.891846,674.188416 743.424316,673.721924 
	C747.766907,673.275024 751.373901,674.740051 753.467529,678.685242 
	C755.646423,682.791016 755.725647,687.103333 752.793945,690.876526 
	C749.934814,694.556213 746.124512,696.255066 741.016846,694.456543 
z"/>
<path fill="#000000" opacity="1.000000" stroke="none" 
	d="
M781.537354,691.431274 
	C776.374878,695.610168 772.142944,696.041626 768.228394,693.049927 
	C764.213440,689.981628 762.827087,684.511597 764.823303,679.615356 
	C766.587585,675.287964 770.765320,673.035095 775.716797,673.740967 
	C783.545471,674.857056 786.552551,683.453674 781.537354,691.431274 
z"/>
<path fill="#000000" opacity="1.000000" stroke="none" 
	d="
M752.918335,602.277466 
	C756.766602,610.296814 753.891602,617.841370 746.831482,619.176514 
	C742.048950,620.080872 738.001343,618.208679 735.958496,614.147278 
	C733.861694,609.978821 734.558411,604.093384 737.505798,601.076843 
	C740.417297,598.097168 745.983582,597.486938 749.986877,599.801880 
	C750.973511,600.372437 751.788513,601.239807 752.918335,602.277466 
z"/>
<path fill="#000000" opacity="1.000000" stroke="none" 
	d="
M749.956177,732.194824 
	C745.159912,734.418884 740.870667,734.604980 737.368042,730.627380 
	C734.200623,727.030518 733.873169,722.803101 735.763977,718.524292 
	C737.557434,714.465942 740.901978,712.517456 745.324341,712.739563 
	C749.547913,712.951721 752.744690,715.154907 753.966614,719.115601 
	C755.472107,723.995117 754.965820,728.691467 749.956177,732.194824 
z"/>
<path fill="#000000" opacity="1.000000" stroke="none" 
	d="
M773.140503,733.385925 
	C766.756287,732.210266 763.213501,727.441711 764.026672,721.680969 
	C764.837402,715.936829 768.938721,712.464478 774.619812,712.712463 
	C780.032959,712.948669 784.155884,717.308838 784.180603,722.823242 
	C784.208252,728.995056 780.332336,732.856079 773.140503,733.385925 
z"/>
<path fill="#000000" opacity="1.000000" stroke="none" 
	d="
M506.356415,409.046875 
	C508.471252,405.520203 511.518311,407.941498 514.108765,407.485016 
	C519.027405,406.618286 523.935913,407.729919 529.441833,407.862061 
	C528.894653,411.840790 528.510986,415.373199 527.886169,418.862396 
	C527.569580,420.630310 526.016113,421.000519 524.414917,421.004211 
	C520.273621,421.013794 516.132141,421.050751 511.991119,421.024048 
	C509.189209,421.006012 507.867004,419.601990 507.665894,416.733124 
	C507.493805,414.278503 506.833069,411.858154 506.356415,409.046875 
z"/>
<path fill="#000000" opacity="1.000000" stroke="none" 
	d="
M785.666077,361.214050 
	C786.089539,354.419495 788.828735,351.671295 794.465576,351.929260 
	C799.828613,352.174683 802.257263,355.025848 802.314575,361.190826 
	C802.329956,362.844757 802.325195,364.503387 802.220703,366.152985 
	C801.998169,369.667236 800.380554,371.742981 796.553955,371.410950 
	C796.225830,371.382507 795.892395,371.415833 795.561401,371.421631 
	C785.735474,371.593597 785.735474,371.593628 785.666077,361.214050 
z"/>
<path fill="#000000" opacity="1.000000" stroke="none" 
	d="
M522.041138,705.000000 
	C522.051941,728.634094 522.070496,751.768127 522.075867,774.902222 
	C522.076294,776.897949 522.151367,778.913208 521.912292,780.885559 
	C521.310303,785.852295 518.229675,788.517090 513.607117,788.275635 
	C509.333435,788.052368 506.724915,785.203857 506.715576,780.137329 
	C506.653839,746.684509 506.700989,713.231384 506.648834,679.778564 
	C506.641602,675.129700 508.868011,672.559448 513.313354,671.996094 
	C517.847595,671.421631 521.532898,674.156677 521.785461,679.055664 
	C522.221741,687.519104 521.994324,696.016724 522.041138,705.000000 
z"/>
<path fill="#000000" opacity="1.000000" stroke="none" 
	d="
M497.280334,703.000244 
	C497.274994,728.449402 497.271790,753.398682 497.265472,778.347961 
	C497.264771,781.183594 497.439362,784.127441 495.063690,786.239868 
	C492.476868,788.539978 489.418457,788.997803 486.209351,787.787964 
	C483.026672,786.588196 481.674652,784.115601 481.676666,780.766602 
	C481.695740,749.330750 481.645935,717.894653 481.753845,686.459167 
	C481.772675,680.972900 484.670105,678.456543 489.861053,678.562927 
	C494.871338,678.665466 497.140411,681.024902 497.247162,686.533203 
	C497.350281,691.853760 497.277222,697.177795 497.280334,703.000244 
z"/>
<path fill="#000000" opacity="1.000000" stroke="none" 
	d="
M531.601440,705.086426 
	C531.630737,702.770935 531.535095,700.928772 531.716858,699.114502 
	C532.127441,695.016052 535.444641,691.989014 539.341003,691.998840 
	C543.423218,692.009094 546.568054,694.791687 547.112671,698.981079 
	C547.283386,700.294495 547.257507,701.638428 547.257385,702.968384 
	C547.254211,727.923523 547.244812,752.878662 547.225220,777.833801 
	C547.223206,780.324463 547.400940,782.895996 545.717773,785.009094 
	C543.537476,787.746399 540.567444,788.692810 537.247559,787.994263 
	C533.802063,787.269226 531.945312,785.076050 531.529907,781.393738 
	C530.630005,773.417786 530.885559,765.414551 531.194702,757.463867 
	C531.867249,740.163513 531.373596,722.867676 531.601440,705.086426 
z"/>
<path fill="#000000" opacity="1.000000" stroke="none" 
	d="
M565.382385,787.856689 
	C558.329285,788.344666 555.685120,786.077637 555.666565,779.546326 
	C555.605103,757.921387 555.617798,736.296021 555.668701,714.671021 
	C555.682007,708.999573 558.303955,705.937927 562.912659,705.814331 
	C567.986084,705.678284 571.262207,709.046692 571.272217,714.807800 
	C571.309387,736.100037 571.233154,757.392517 571.238281,778.684875 
	C571.239258,782.852234 570.149841,786.258423 565.382385,787.856689 
z"/>
<path fill="#000000" opacity="1.000000" stroke="none" 
	d="
M456.720032,733.353882 
	C457.647980,727.421997 460.880127,724.527649 465.552917,724.993652 
	C469.890259,725.426208 472.291595,728.467590 472.298035,733.825562 
	C472.316132,748.943054 472.304443,764.060791 472.228149,779.178101 
	C472.197815,785.190430 469.634369,788.201904 464.752594,788.308411 
	C459.662750,788.419434 456.750549,785.239075 456.724823,779.164307 
	C456.660767,764.047058 456.708679,748.929321 456.720032,733.353882 
z"/>
</svg>